<svg viewBox="0 0 375 173" preserveAspectRatio="xMidYMid meet" class="css-1y5supu" id="fghaeagc"><defs id="SvgjsDefs1047"></defs><g id="SvgjsG1048" featurekey="root" fill="#1db8f1"></g><g id="SvgjsG1049" featurekey="container1" fill="#0636f7" transform="matrix(2.721773021303537,0,0,2.721773021303537,20.00002002693076,5.011359878632294)">   <title xmlns="http://www.w3.org/2000/svg">Untitled-1</title>   <path xmlns="http://www.w3.org/2000/svg" d="M23.11,55.78L1.69,43.41A3.39,3.39,0,0,1,0,40.48V15.75a3.39,3.39,0,0,1,1.69-2.94L23.11,0.45a3.39,3.39,0,0,1,3.39,0L47.91,12.82a3.39,3.39,0,0,1,1.69,2.94V40.48a3.39,3.39,0,0,1-1.69,2.94L26.5,55.78A3.39,3.39,0,0,1,23.11,55.78Z"></path> </g><g id="SvgjsG1050" featurekey="symbol1" fill="#1db8f1" transform="matrix(0.7777777777777778,0,0,0.7777777777777778,49.111111111111114,43.11599985758463)"><g><path d="M71.854,33.277v54.015L95,69.279V17.85L71.854,33.277z M89.859,40.997l-11.57,7.709V38.418l11.57-7.714V40.997z"></path><polygon points="43.57,33.277 43.57,58.993 28.147,58.993 28.147,33.277 5,33.277 5,87.292 66.717,87.292 66.717,33.277  "></polygon><polygon points="69.285,12.708 43.57,28.137 66.717,28.137 92.434,12.708  "></polygon><polygon points="30.712,12.708 5,28.137 29.426,28.137 55.141,12.708  "></polygon></g></g><g id="SvgjsG1051" featurekey="text1" fill="#0636f7" transform="matrix(4.950704205648996,0,0,4.950704205648996,173.43672365656292,2.0580555513545917)"><path d="M3.2 18.7579 l1.7053 0 q1.768421053 0 2.863157895 -1.178947368 t1.0947 -2.7789 q0 -1.178947368 -0.5684210526 -2.084210526 t-1.4737 -1.3895 t-1.9158 -0.48421 l-1.7053 0 l0 7.9158 z M4.9053 9.684 q1.368421053 0 2.557894737 0.6842105263 t1.8737 1.8737 t0.68421 2.5579 q0 2.126315789 -1.494736842 3.621052632 t-3.6211 1.4947 l-1.7053 0 l0 4.0842 l-1.1579 0 l0 -13.158 l-1.7263 0 l0.69474 -1.1579 l3.8947 0 z M18.484242105263156 22.8421 q-1.368421053 1.410526316 -3.284210526 1.410526316 q-1.852631579 0 -3.2 -1.347368421 t-1.3474 -3.2 q0 -1.894736842 1.347368421 -3.221052632 t3.2 -1.3263 q1.915789474 0 3.284210526 1.410526316 l1.2632 -1.1789 l0 8.6105 z M15.200042105263158 16.3158 q-1.431578947 0 -2.410526316 0.9789473684 t-0.97895 2.4105 t0.97895 2.4105 t2.4105 0.97895 q1.410526316 0 2.4 -0.9894736842 t0.98947 -2.4 t-0.98947 -2.4 t-2.4 -0.98947 z M26.58944736842105 24 l-1.4105 0 l-3.0105 -4.3158 l0 4.3158 l-1.1579 0 l0 -14.316 l1.1579 0 l0 9.7053 l2.4632 -4 l1.3684 0 l-2.5474 4.1263 z M34.75786315789474 21.2842 l1.0105 0.56842 q-0.5684210526 1.073684211 -1.642105263 1.736842105 t-2.3579 0.66316 q-1.852631579 0 -3.2 -1.347368421 t-1.3474 -3.2 q0 -1.894736842 1.347368421 -3.221052632 t3.2 -1.3263 q1.178947368 0 2.221052632 0.5894736842 t1.6105 1.4947 l-5.8737 5.1789 q0.8842105263 0.6736842105 2.042105263 0.6736842105 q0.9684210526 0 1.757894737 -0.4842105263 t1.2316 -1.3263 z M28.94736315789474 21.6 l5.0316 -4.4632 q-0.9473684211 -0.8210526316 -2.210526316 -0.8210526316 q-1.431578947 0 -2.410526316 0.9789473684 t-0.97895 2.4105 q0 1.031578947 0.5684210526 1.894736842 z M37.97896315789474 16.5474 l-1.5579 0 l0 -1.1579 l1.5579 0 l0 -2.4211 l1.1579 -0.56842 l0 2.9895 l1.5368 0 l0 1.1579 l-1.5368 0 l0 7.4526 l-1.1579 0 l0 -7.4526 z"></path></g></svg>